<?xml version="1.0" encoding="UTF-8"?>
<svg xmlns="http://www.w3.org/2000/svg" xmlns:xlink="http://www.w3.org/1999/xlink" width="50px" height="50px" viewBox="0 0 50 50" version="1.1">
<g id="surface1">
<path style=" stroke:none;fill-rule:nonzero;fill:rgb(9.019608%,45.09804%,81.176472%);fill-opacity:1;" d="M 0 0 C 16.5 0 33 0 50 0 C 50 16.5 50 33 50 50 C 33.5 50 17 50 0 50 C 0 33.5 0 17 0 0 Z M 0 0 "/>
<path style=" stroke:none;fill-rule:nonzero;fill:rgb(98.431373%,99.215686%,99.607843%);fill-opacity:1;" d="M 2.800781 15.5 C 8.113281 15.5 13.425781 15.5 18.898438 15.5 C 18.898438 17.316406 18.898438 19.128906 18.898438 21 C 18.734375 21 18.570312 21 18.398438 21 C 18.246094 20.71875 18.1875 20.535156 18.132812 20.210938 C 17.894531 19.097656 17.257812 17.949219 16.3125 17.304688 C 14.949219 16.503906 13.457031 16.5625 11.917969 16.539062 C 11.285156 16.523438 10.652344 16.511719 10 16.5 C 10 19.074219 10 21.648438 10 24.300781 C 11.621094 24.277344 11.621094 24.277344 12.929688 23.5 C 13.683594 22.5 13.90625 21.207031 14.101562 20 C 14.296875 20 14.496094 20 14.699219 20 C 14.699219 23.199219 14.699219 26.402344 14.699219 29.699219 C 14.503906 29.699219 14.304688 29.699219 14.101562 29.699219 C 14.082031 29.589844 14.082031 29.589844 14.066406 29.476562 C 13.84375 28.046875 13.613281 26.792969 12.414062 25.882812 C 11.832031 25.542969 11.339844 25.488281 10.675781 25.445312 C 10.546875 25.4375 10.421875 25.429688 10.292969 25.417969 C 10.148438 25.410156 10.148438 25.410156 10 25.398438 C 10.007812 26.269531 10.015625 27.140625 10.023438 28.011719 C 10.027344 28.417969 10.03125 28.824219 10.035156 29.226562 C 10.039062 29.617188 10.042969 30.007812 10.046875 30.398438 C 10.046875 30.546875 10.050781 30.695312 10.050781 30.84375 C 10.011719 32.171875 10.011719 32.171875 10.601562 33.300781 C 11.179688 33.589844 11.808594 33.523438 12.445312 33.523438 C 12.664062 33.523438 12.882812 33.527344 13.101562 33.53125 C 14.789062 33.542969 16.433594 33.335938 17.699219 32.101562 C 18.609375 31.117188 19.183594 29.921875 19.699219 28.699219 C 19.863281 28.699219 20.03125 28.699219 20.199219 28.699219 C 20.148438 29.136719 20.09375 29.570312 20.039062 30.007812 C 20.023438 30.15625 20.003906 30.300781 19.984375 30.449219 C 19.890625 31.226562 19.789062 31.996094 19.644531 32.765625 C 19.558594 33.210938 19.507812 33.664062 19.445312 34.113281 C 19.398438 34.398438 19.398438 34.398438 19.300781 34.601562 C 13.855469 34.601562 8.410156 34.601562 2.800781 34.601562 C 2.800781 34.433594 2.800781 34.269531 2.800781 34.101562 C 2.925781 34.097656 2.925781 34.097656 3.054688 34.09375 C 3.851562 34.050781 4.609375 33.992188 5.199219 33.398438 C 5.402344 32.992188 5.414062 32.621094 5.414062 32.171875 C 5.414062 32.042969 5.414062 31.914062 5.414062 31.78125 C 5.414062 31.636719 5.414062 31.496094 5.417969 31.351562 C 5.417969 31.203125 5.417969 31.050781 5.417969 30.898438 C 5.417969 30.492188 5.417969 30.082031 5.421875 29.671875 C 5.421875 29.417969 5.421875 29.160156 5.421875 28.90625 C 5.421875 28.105469 5.421875 27.304688 5.425781 26.503906 C 5.425781 25.582031 5.425781 24.65625 5.429688 23.734375 C 5.429688 23.019531 5.433594 22.308594 5.433594 21.59375 C 5.433594 21.167969 5.433594 20.738281 5.433594 20.3125 C 5.4375 19.914062 5.4375 19.511719 5.4375 19.109375 C 5.4375 18.964844 5.4375 18.816406 5.4375 18.667969 C 5.457031 17.640625 5.457031 17.640625 5.101562 16.699219 C 4.808594 16.410156 4.515625 16.328125 4.117188 16.238281 C 3.960938 16.199219 3.960938 16.199219 3.800781 16.164062 C 3.464844 16.09375 3.136719 16.039062 2.800781 16 C 2.800781 15.835938 2.800781 15.671875 2.800781 15.5 Z M 2.800781 15.5 "/>
<path style=" stroke:none;fill-rule:nonzero;fill:rgb(99.215686%,99.607843%,99.607843%);fill-opacity:1;" d="M 28.101562 15.5 C 31.035156 15.5 33.972656 15.5 37 15.5 C 37 15.664062 37 15.828125 37 16 C 36.890625 16.003906 36.890625 16.003906 36.78125 16.007812 C 36.164062 16.042969 35.777344 16.101562 35.300781 16.5 C 35.300781 17.359375 35.671875 18.007812 36.066406 18.75 C 36.214844 19.023438 36.355469 19.304688 36.5 19.582031 C 37.074219 20.699219 37.664062 21.804688 38.265625 22.90625 C 38.753906 23.796875 39.230469 24.699219 39.699219 25.601562 C 40.464844 24.222656 41.199219 22.832031 41.917969 21.429688 C 41.984375 21.300781 42.054688 21.167969 42.121094 21.039062 C 42.152344 20.972656 42.1875 20.910156 42.21875 20.84375 C 42.542969 20.214844 42.875 19.585938 43.207031 18.960938 C 43.605469 18.21875 43.820312 17.652344 43.699219 16.800781 C 43.492188 16.460938 43.339844 16.339844 42.960938 16.230469 C 42.707031 16.175781 42.457031 16.136719 42.199219 16.101562 C 42.03125 16.066406 41.867188 16.035156 41.699219 16 C 41.699219 15.835938 41.699219 15.671875 41.699219 15.5 C 43.582031 15.5 45.460938 15.5 47.398438 15.5 C 47.398438 15.664062 47.398438 15.828125 47.398438 16 C 47.34375 16.007812 47.289062 16.011719 47.230469 16.019531 C 46.472656 16.140625 46.035156 16.4375 45.582031 17.058594 C 44.683594 18.375 44 19.839844 43.277344 21.253906 C 43.019531 21.761719 42.757812 22.265625 42.492188 22.769531 C 42.457031 22.839844 42.417969 22.910156 42.382812 22.980469 C 41.921875 23.851562 41.457031 24.71875 40.992188 25.582031 C 40.929688 25.699219 40.867188 25.816406 40.804688 25.933594 C 40.746094 26.039062 40.691406 26.144531 40.632812 26.25 C 40.441406 26.613281 40.386719 26.804688 40.382812 27.21875 C 40.382812 27.328125 40.382812 27.4375 40.382812 27.546875 C 40.378906 27.667969 40.378906 27.785156 40.378906 27.90625 C 40.378906 28.027344 40.378906 28.148438 40.378906 28.273438 C 40.378906 28.53125 40.375 28.789062 40.375 29.046875 C 40.375 29.4375 40.371094 29.832031 40.367188 30.222656 C 40.367188 30.472656 40.367188 30.722656 40.367188 30.976562 C 40.367188 31.089844 40.363281 31.207031 40.363281 31.328125 C 40.363281 32.558594 40.363281 32.558594 40.898438 33.625 C 41.125 33.820312 41.257812 33.871094 41.550781 33.917969 C 41.679688 33.941406 41.679688 33.941406 41.8125 33.960938 C 42.304688 34.027344 42.800781 34.066406 43.300781 34.101562 C 43.300781 34.265625 43.300781 34.429688 43.300781 34.601562 C 39.902344 34.601562 36.503906 34.601562 33 34.601562 C 33 34.433594 33 34.269531 33 34.101562 C 33.121094 34.082031 33.246094 34.0625 33.371094 34.042969 C 33.535156 34.015625 33.699219 33.988281 33.863281 33.960938 C 33.941406 33.949219 34.023438 33.9375 34.109375 33.925781 C 34.554688 33.851562 34.980469 33.773438 35.398438 33.601562 C 35.535156 33.375 35.535156 33.375 35.601562 33.101562 C 35.632812 33.019531 35.667969 32.9375 35.699219 32.851562 C 35.835938 32.371094 35.851562 31.90625 35.867188 31.410156 C 35.871094 31.25 35.871094 31.25 35.875 31.089844 C 35.988281 27.992188 35.988281 27.992188 34.6875 25.265625 C 34.339844 24.769531 34.074219 24.226562 33.792969 23.6875 C 33.675781 23.46875 33.558594 23.25 33.441406 23.03125 C 33.382812 22.925781 33.328125 22.820312 33.269531 22.710938 C 32.914062 22.054688 32.554688 21.394531 32.195312 20.738281 C 31.988281 20.367188 31.789062 19.992188 31.585938 19.617188 C 30.65625 17.632812 30.65625 17.632812 29.101562 16.199219 C 28.769531 16.101562 28.441406 16.039062 28.101562 16 C 28.101562 15.835938 28.101562 15.671875 28.101562 15.5 Z M 28.101562 15.5 "/>
</g>
</svg>
